<?xml version="1.0" standalone="no"?>
<!DOCTYPE svg PUBLIC "-//W3C//DTD SVG 20010904//EN"
 "http://www.w3.org/TR/2001/REC-SVG-20010904/DTD/svg10.dtd">
<svg version="1.0" xmlns="http://www.w3.org/2000/svg"
 width="300.000000pt" height="300.000000pt" viewBox="0 0 300.000000 300.000000"
 preserveAspectRatio="xMidYMid meet">
<metadata>
Created by potrace 1.11, written by Peter Selinger 2001-2013
</metadata>
<g transform="translate(0.000000,300.000000) scale(0.100000,-0.100000)"
fill="#000000" stroke="none">
<path d="M90 1500 l0 -1410 1410 0 1410 0 0 1410 0 1410 -1410 0 -1410 0 0
-1410z m1551 1184 c129 -38 262 -142 322 -251 35 -66 67 -190 67 -264 0 -196
-111 -380 -286 -472 -40 -20 -78 -37 -86 -37 -22 0 -53 -42 -58 -80 -4 -27
-10 -36 -28 -38 -16 -3 -21 -8 -18 -20 3 -9 12 -47 21 -84 14 -62 14 -70 -5
-130 -11 -35 -20 -91 -20 -127 0 -55 4 -68 30 -101 17 -21 30 -41 30 -45 0 -4
-14 -24 -30 -46 l-31 -38 26 -40 c14 -22 25 -45 25 -50 0 -6 -12 -31 -26 -57
l-26 -47 23 -48 22 -49 -23 -25 c-13 -14 -22 -27 -19 -29 2 -2 23 -15 47 -30
l43 -27 -45 -37 c-39 -32 -45 -42 -45 -77 -1 -22 -12 -64 -26 -93 -38 -82 -70
-82 -112 -1 l-22 44 -1 618 c0 518 -2 621 -14 633 -8 7 -39 23 -70 34 -117 44
-233 146 -287 253 -29 56 -59 182 -59 247 0 78 34 204 73 268 68 114 170 196
297 239 81 28 228 31 311 7z"/>
<path d="M1382 2604 c-224 -60 -367 -277 -332 -501 29 -180 169 -333 341 -372
64 -15 156 -13 224 5 215 55 363 284 325 502 -46 265 -304 435 -558 366z m-75
-332 c6 -68 13 -126 16 -128 2 -2 14 46 26 108 30 154 28 148 62 148 16 0 29
-2 29 -4 0 -11 51 -250 54 -253 3 -4 9 47 22 185 l7 72 97 0 c83 0 101 -3 124
-21 25 -20 26 -24 26 -130 0 -103 -1 -111 -25 -134 -19 -20 -34 -25 -75 -25
l-50 0 0 -75 0 -75 -74 0 c-63 0 -75 3 -80 18 -2 9 -14 62 -27 117 -12 55 -25
104 -29 108 -4 5 -11 -9 -15 -30 -3 -21 -16 -78 -27 -126 l-20 -88 -42 3 -41
3 -22 205 c-29 275 -31 252 15 248 l37 -3 12 -123z"/>
<path d="M1620 2245 l0 -75 35 0 35 0 0 75 0 75 -35 0 -35 0 0 -75z"/>
</g>
</svg>
